wh<?xml version="1.0" encoding="UTF-8"?>
<svg xmlns="http://www.w3.org/2000/svg" width="256" height="64" viewBox="0 0 256 64">
  <rect width="256" height="64" fill="none"/>

    <!-- Frame 0: idle -->

    <circle cx="18" cy="12" r="7" fill="#333" stroke="#222" stroke-width="1"/>
    <circle cx="46" cy="12" r="7" fill="#333" stroke="#222" stroke-width="1"/>
    <!-- Head -->
    <circle cx="32" cy="28" r="18" fill="#ECF0F1" stroke="#333" stroke-width="1.5"/>
    <!-- Eyes -->

        <circle cx="24" cy="24" r="3" fill="#333"/>
        <circle cx="40" cy="24" r="3" fill="#333"/>
    <!-- Nose -->
    <ellipse cx="32" cy="30" rx="2.5" ry="2" fill="#333"/>
    <!-- Mouth -->
    <path d="M27,34 Q32,39 37,34" fill="none" stroke="#333" stroke-width="1.5" stroke-linecap="round"/>
    <!-- Extras -->

    <!-- Label -->
    <text x="32" y="58" font-family="sans-serif" font-size="7" fill="#666" text-anchor="middle">idle 1</text>

    <!-- Frame 1: idle -->

    <circle cx="82" cy="14" r="7" fill="#333" stroke="#222" stroke-width="1"/>
    <circle cx="110" cy="14" r="7" fill="#333" stroke="#222" stroke-width="1"/>
    <!-- Head -->
    <circle cx="96" cy="30" r="18" fill="#ECF0F1" stroke="#333" stroke-width="1.5"/>
    <!-- Eyes -->

        <circle cx="88" cy="26" r="3" fill="#333"/>
        <circle cx="104" cy="26" r="3" fill="#333"/>
    <!-- Nose -->
    <ellipse cx="96" cy="32" rx="2.5" ry="2" fill="#333"/>
    <!-- Mouth -->
    <path d="M91,36 Q96,41 101,36" fill="none" stroke="#333" stroke-width="1.5" stroke-linecap="round"/>
    <!-- Extras -->

    <!-- Label -->
    <text x="96" y="58" font-family="sans-serif" font-size="7" fill="#666" text-anchor="middle">idle 2</text>

    <!-- Frame 2: idle -->

    <circle cx="146" cy="12" r="7" fill="#333" stroke="#222" stroke-width="1"/>
    <circle cx="174" cy="12" r="7" fill="#333" stroke="#222" stroke-width="1"/>
    <!-- Head -->
    <circle cx="160" cy="28" r="18" fill="#ECF0F1" stroke="#333" stroke-width="1.5"/>
    <!-- Eyes -->

        <circle cx="152" cy="24" r="3" fill="#333"/>
        <circle cx="168" cy="24" r="3" fill="#333"/>
    <!-- Nose -->
    <ellipse cx="160" cy="30" rx="2.5" ry="2" fill="#333"/>
    <!-- Mouth -->
    <path d="M155,34 Q160,39 165,34" fill="none" stroke="#333" stroke-width="1.5" stroke-linecap="round"/>
    <!-- Extras -->

    <!-- Label -->
    <text x="160" y="58" font-family="sans-serif" font-size="7" fill="#666" text-anchor="middle">idle 3</text>

    <!-- Frame 3: idle -->

    <circle cx="210" cy="10" r="7" fill="#333" stroke="#222" stroke-width="1"/>
    <circle cx="238" cy="10" r="7" fill="#333" stroke="#222" stroke-width="1"/>
    <!-- Head -->
    <circle cx="224" cy="26" r="18" fill="#ECF0F1" stroke="#333" stroke-width="1.5"/>
    <!-- Eyes -->

        <circle cx="216" cy="22" r="3" fill="#333"/>
        <circle cx="232" cy="22" r="3" fill="#333"/>
    <!-- Nose -->
    <ellipse cx="224" cy="28" rx="2.5" ry="2" fill="#333"/>
    <!-- Mouth -->
    <path d="M219,32 Q224,37 229,32" fill="none" stroke="#333" stroke-width="1.5" stroke-linecap="round"/>
    <!-- Extras -->

    <!-- Label -->
    <text x="224" y="58" font-family="sans-serif" font-size="7" fill="#666" text-anchor="middle">idle 4</text>

</svg>
