<?xml version="1.0" encoding="UTF-8"?>
<svg xmlns="http://www.w3.org/2000/svg" width="256" height="64" viewBox="0 0 256 64">
  <rect width="256" height="64" fill="none"/>
  
    <!-- Frame 0: sleep -->
    <!-- Left ear -->
    <polygon points="13,18 18,6 23,18" fill="#9B9B9B" stroke="#333" stroke-width="1"/>
    <!-- Right ear -->
    <polygon points="41,18 46,6 51,18" fill="#9B9B9B" stroke="#333" stroke-width="1"/>
    <!-- Head -->
    <circle cx="32" cy="28" r="18" fill="#9B9B9B" stroke="#333" stroke-width="1.5"/>
    <!-- Eyes -->
    
        <line x1="21" y1="24" x2="27" y2="24" stroke="#333" stroke-width="2" stroke-linecap="round"/>
        <line x1="37" y1="24" x2="43" y2="24" stroke="#333" stroke-width="2" stroke-linecap="round"/>
    <!-- Nose -->
    <ellipse cx="32" cy="30" rx="2.5" ry="2" fill="#333"/>
    <!-- Mouth -->
    <line x1="27" y1="34" x2="37" y2="34" stroke="#333" stroke-width="1.5" stroke-linecap="round"/>
    <!-- Extras -->
    <text x="50" y="10" font-family="sans-serif" font-size="8" font-weight="bold" fill="#333" text-anchor="middle">Z</text>
    
    
    <!-- Label -->
    <text x="32" y="58" font-family="sans-serif" font-size="7" fill="#666" text-anchor="middle">sleep 1</text>
  
    <!-- Frame 1: sleep -->
    <!-- Left ear -->
    <polygon points="77,20 82,8 87,20" fill="#9B9B9B" stroke="#333" stroke-width="1"/>
    <!-- Right ear -->
    <polygon points="105,20 110,8 115,20" fill="#9B9B9B" stroke="#333" stroke-width="1"/>
    <!-- Head -->
    <circle cx="96" cy="30" r="18" fill="#9B9B9B" stroke="#333" stroke-width="1.5"/>
    <!-- Eyes -->
    
        <line x1="85" y1="26" x2="91" y2="26" stroke="#333" stroke-width="2" stroke-linecap="round"/>
        <line x1="101" y1="26" x2="107" y2="26" stroke="#333" stroke-width="2" stroke-linecap="round"/>
    <!-- Nose -->
    <ellipse cx="96" cy="32" rx="2.5" ry="2" fill="#333"/>
    <!-- Mouth -->
    <line x1="91" y1="36" x2="101" y2="36" stroke="#333" stroke-width="1.5" stroke-linecap="round"/>
    <!-- Extras -->
    <text x="114" y="12" font-family="sans-serif" font-size="8" font-weight="bold" fill="#333" text-anchor="middle">z</text>
    
    
    <!-- Label -->
    <text x="96" y="58" font-family="sans-serif" font-size="7" fill="#666" text-anchor="middle">sleep 2</text>
  
    <!-- Frame 2: sleep -->
    <!-- Left ear -->
    <polygon points="141,18 146,6 151,18" fill="#9B9B9B" stroke="#333" stroke-width="1"/>
    <!-- Right ear -->
    <polygon points="169,18 174,6 179,18" fill="#9B9B9B" stroke="#333" stroke-width="1"/>
    <!-- Head -->
    <circle cx="160" cy="28" r="18" fill="#9B9B9B" stroke="#333" stroke-width="1.5"/>
    <!-- Eyes -->
    
        <line x1="149" y1="24" x2="155" y2="24" stroke="#333" stroke-width="2" stroke-linecap="round"/>
        <line x1="165" y1="24" x2="171" y2="24" stroke="#333" stroke-width="2" stroke-linecap="round"/>
    <!-- Nose -->
    <ellipse cx="160" cy="30" rx="2.5" ry="2" fill="#333"/>
    <!-- Mouth -->
    <line x1="155" y1="34" x2="165" y2="34" stroke="#333" stroke-width="1.5" stroke-linecap="round"/>
    <!-- Extras -->
    <text x="178" y="10" font-family="sans-serif" font-size="8" font-weight="bold" fill="#333" text-anchor="middle">Z</text>
    
    
    <!-- Label -->
    <text x="160" y="58" font-family="sans-serif" font-size="7" fill="#666" text-anchor="middle">sleep 3</text>
  
    <!-- Frame 3: sleep -->
    <!-- Left ear -->
    <polygon points="205,16 210,4 215,16" fill="#9B9B9B" stroke="#333" stroke-width="1"/>
    <!-- Right ear -->
    <polygon points="233,16 238,4 243,16" fill="#9B9B9B" stroke="#333" stroke-width="1"/>
    <!-- Head -->
    <circle cx="224" cy="26" r="18" fill="#9B9B9B" stroke="#333" stroke-width="1.5"/>
    <!-- Eyes -->
    
        <line x1="213" y1="22" x2="219" y2="22" stroke="#333" stroke-width="2" stroke-linecap="round"/>
        <line x1="229" y1="22" x2="235" y2="22" stroke="#333" stroke-width="2" stroke-linecap="round"/>
    <!-- Nose -->
    <ellipse cx="224" cy="28" rx="2.5" ry="2" fill="#333"/>
    <!-- Mouth -->
    <line x1="219" y1="32" x2="229" y2="32" stroke="#333" stroke-width="1.5" stroke-linecap="round"/>
    <!-- Extras -->
    <text x="242" y="8" font-family="sans-serif" font-size="8" font-weight="bold" fill="#333" text-anchor="middle">z</text>
    
    
    <!-- Label -->
    <text x="224" y="58" font-family="sans-serif" font-size="7" fill="#666" text-anchor="middle">sleep 4</text>
  
</svg>