<?xml version="1.0" encoding="UTF-8"?>
<svg xmlns="http://www.w3.org/2000/svg" width="256" height="64" viewBox="0 0 256 64">
  <rect width="256" height="64" fill="none"/>
  
    <!-- Frame 0: success -->
    <!-- Left ear -->
    <polygon points="13,18 18,6 23,18" fill="#7ED321" stroke="#333" stroke-width="1"/>
    <!-- Right ear -->
    <polygon points="41,18 46,6 51,18" fill="#7ED321" stroke="#333" stroke-width="1"/>
    <!-- Head -->
    <circle cx="32" cy="28" r="18" fill="#7ED321" stroke="#333" stroke-width="1.5"/>
    <!-- Eyes -->
    
        <path d="M21,24 Q24,20 27,24" fill="none" stroke="#333" stroke-width="2" stroke-linecap="round"/>
        <path d="M37,24 Q40,20 43,24" fill="none" stroke="#333" stroke-width="2" stroke-linecap="round"/>
    <!-- Nose -->
    <ellipse cx="32" cy="30" rx="2.5" ry="2" fill="#333"/>
    <!-- Mouth -->
    <path d="M25,34 Q32,41 39,34" fill="none" stroke="#333" stroke-width="2" stroke-linecap="round"/>
    <!-- Extras -->
    
    
    
    <!-- Label -->
    <text x="32" y="58" font-family="sans-serif" font-size="7" fill="#666" text-anchor="middle">ok! 1</text>
  
    <!-- Frame 1: success -->
    <!-- Left ear -->
    <polygon points="77,20 82,8 87,20" fill="#7ED321" stroke="#333" stroke-width="1"/>
    <!-- Right ear -->
    <polygon points="105,20 110,8 115,20" fill="#7ED321" stroke="#333" stroke-width="1"/>
    <!-- Head -->
    <circle cx="96" cy="30" r="18" fill="#7ED321" stroke="#333" stroke-width="1.5"/>
    <!-- Eyes -->
    
        <path d="M85,26 Q88,22 91,26" fill="none" stroke="#333" stroke-width="2" stroke-linecap="round"/>
        <path d="M101,26 Q104,22 107,26" fill="none" stroke="#333" stroke-width="2" stroke-linecap="round"/>
    <!-- Nose -->
    <ellipse cx="96" cy="32" rx="2.5" ry="2" fill="#333"/>
    <!-- Mouth -->
    <path d="M89,36 Q96,43 103,36" fill="none" stroke="#333" stroke-width="2" stroke-linecap="round"/>
    <!-- Extras -->
    
    
    
    <!-- Label -->
    <text x="96" y="58" font-family="sans-serif" font-size="7" fill="#666" text-anchor="middle">ok! 2</text>
  
    <!-- Frame 2: success -->
    <!-- Left ear -->
    <polygon points="141,18 146,6 151,18" fill="#7ED321" stroke="#333" stroke-width="1"/>
    <!-- Right ear -->
    <polygon points="169,18 174,6 179,18" fill="#7ED321" stroke="#333" stroke-width="1"/>
    <!-- Head -->
    <circle cx="160" cy="28" r="18" fill="#7ED321" stroke="#333" stroke-width="1.5"/>
    <!-- Eyes -->
    
        <path d="M149,24 Q152,20 155,24" fill="none" stroke="#333" stroke-width="2" stroke-linecap="round"/>
        <path d="M165,24 Q168,20 171,24" fill="none" stroke="#333" stroke-width="2" stroke-linecap="round"/>
    <!-- Nose -->
    <ellipse cx="160" cy="30" rx="2.5" ry="2" fill="#333"/>
    <!-- Mouth -->
    <path d="M153,34 Q160,41 167,34" fill="none" stroke="#333" stroke-width="2" stroke-linecap="round"/>
    <!-- Extras -->
    
    
    
    <!-- Label -->
    <text x="160" y="58" font-family="sans-serif" font-size="7" fill="#666" text-anchor="middle">ok! 3</text>
  
    <!-- Frame 3: success -->
    <!-- Left ear -->
    <polygon points="205,16 210,4 215,16" fill="#7ED321" stroke="#333" stroke-width="1"/>
    <!-- Right ear -->
    <polygon points="233,16 238,4 243,16" fill="#7ED321" stroke="#333" stroke-width="1"/>
    <!-- Head -->
    <circle cx="224" cy="26" r="18" fill="#7ED321" stroke="#333" stroke-width="1.5"/>
    <!-- Eyes -->
    
        <path d="M213,22 Q216,18 219,22" fill="none" stroke="#333" stroke-width="2" stroke-linecap="round"/>
        <path d="M229,22 Q232,18 235,22" fill="none" stroke="#333" stroke-width="2" stroke-linecap="round"/>
    <!-- Nose -->
    <ellipse cx="224" cy="28" rx="2.5" ry="2" fill="#333"/>
    <!-- Mouth -->
    <path d="M217,32 Q224,39 231,32" fill="none" stroke="#333" stroke-width="2" stroke-linecap="round"/>
    <!-- Extras -->
    
    
    
    <!-- Label -->
    <text x="224" y="58" font-family="sans-serif" font-size="7" fill="#666" text-anchor="middle">ok! 4</text>
  
</svg>