<?xml version="1.0" encoding="UTF-8"?>
<svg xmlns="http://www.w3.org/2000/svg" width="256" height="64" viewBox="0 0 256 64">
  <rect width="256" height="64" fill="none"/>
  
    <!-- Frame 0: wake -->
    <!-- Left ear -->
    <polygon points="13,18 18,4 23,18" fill="#F5A623" stroke="#333" stroke-width="1"/>
    <!-- Right ear -->
    <polygon points="41,18 46,4 51,18" fill="#F5A623" stroke="#333" stroke-width="1"/>
    <!-- Head -->
    <circle cx="32" cy="28" r="18" fill="#F5A623" stroke="#333" stroke-width="1.5"/>
    <!-- Eyes -->
    
        <circle cx="24" cy="24" r="4" fill="#333"/>
        <circle cx="40" cy="24" r="4" fill="#333"/>
        <circle cx="25" cy="23" r="1.5" fill="white"/>
        <circle cx="41" cy="23" r="1.5" fill="white"/>
    <!-- Nose -->
    <ellipse cx="32" cy="30" rx="2.5" ry="2" fill="#333"/>
    <!-- Mouth -->
    <ellipse cx="32" cy="35" rx="4" ry="3" fill="#333"/>
    <!-- Extras -->
    <text x="50" y="10" font-family="sans-serif" font-size="8" font-weight="bold" fill="#333" text-anchor="middle">!</text>
    
    
    <!-- Label -->
    <text x="32" y="58" font-family="sans-serif" font-size="7" fill="#666" text-anchor="middle">wake 1</text>
  
    <!-- Frame 1: wake -->
    <!-- Left ear -->
    <polygon points="77,20 82,6 87,20" fill="#F5A623" stroke="#333" stroke-width="1"/>
    <!-- Right ear -->
    <polygon points="105,20 110,6 115,20" fill="#F5A623" stroke="#333" stroke-width="1"/>
    <!-- Head -->
    <circle cx="96" cy="30" r="18" fill="#F5A623" stroke="#333" stroke-width="1.5"/>
    <!-- Eyes -->
    
        <circle cx="88" cy="26" r="4" fill="#333"/>
        <circle cx="104" cy="26" r="4" fill="#333"/>
        <circle cx="89" cy="25" r="1.5" fill="white"/>
        <circle cx="105" cy="25" r="1.5" fill="white"/>
    <!-- Nose -->
    <ellipse cx="96" cy="32" rx="2.5" ry="2" fill="#333"/>
    <!-- Mouth -->
    <ellipse cx="96" cy="37" rx="4" ry="3" fill="#333"/>
    <!-- Extras -->
    <text x="114" y="12" font-family="sans-serif" font-size="8" font-weight="bold" fill="#333" text-anchor="middle">!</text>
    
    
    <!-- Label -->
    <text x="96" y="58" font-family="sans-serif" font-size="7" fill="#666" text-anchor="middle">wake 2</text>
  
    <!-- Frame 2: wake -->
    <!-- Left ear -->
    <polygon points="141,18 146,4 151,18" fill="#F5A623" stroke="#333" stroke-width="1"/>
    <!-- Right ear -->
    <polygon points="169,18 174,4 179,18" fill="#F5A623" stroke="#333" stroke-width="1"/>
    <!-- Head -->
    <circle cx="160" cy="28" r="18" fill="#F5A623" stroke="#333" stroke-width="1.5"/>
    <!-- Eyes -->
    
        <circle cx="152" cy="24" r="4" fill="#333"/>
        <circle cx="168" cy="24" r="4" fill="#333"/>
        <circle cx="153" cy="23" r="1.5" fill="white"/>
        <circle cx="169" cy="23" r="1.5" fill="white"/>
    <!-- Nose -->
    <ellipse cx="160" cy="30" rx="2.5" ry="2" fill="#333"/>
    <!-- Mouth -->
    <ellipse cx="160" cy="35" rx="4" ry="3" fill="#333"/>
    <!-- Extras -->
    <text x="178" y="10" font-family="sans-serif" font-size="8" font-weight="bold" fill="#333" text-anchor="middle">!</text>
    
    
    <!-- Label -->
    <text x="160" y="58" font-family="sans-serif" font-size="7" fill="#666" text-anchor="middle">wake 3</text>
  
    <!-- Frame 3: wake -->
    <!-- Left ear -->
    <polygon points="205,16 210,2 215,16" fill="#F5A623" stroke="#333" stroke-width="1"/>
    <!-- Right ear -->
    <polygon points="233,16 238,2 243,16" fill="#F5A623" stroke="#333" stroke-width="1"/>
    <!-- Head -->
    <circle cx="224" cy="26" r="18" fill="#F5A623" stroke="#333" stroke-width="1.5"/>
    <!-- Eyes -->
    
        <circle cx="216" cy="22" r="4" fill="#333"/>
        <circle cx="232" cy="22" r="4" fill="#333"/>
        <circle cx="217" cy="21" r="1.5" fill="white"/>
        <circle cx="233" cy="21" r="1.5" fill="white"/>
    <!-- Nose -->
    <ellipse cx="224" cy="28" rx="2.5" ry="2" fill="#333"/>
    <!-- Mouth -->
    <ellipse cx="224" cy="33" rx="4" ry="3" fill="#333"/>
    <!-- Extras -->
    <text x="242" y="8" font-family="sans-serif" font-size="8" font-weight="bold" fill="#333" text-anchor="middle">!</text>
    
    
    <!-- Label -->
    <text x="224" y="58" font-family="sans-serif" font-size="7" fill="#666" text-anchor="middle">wake 4</text>
  
</svg>